<svg xmlns="http://www.w3.org/2000/svg" viewBox="0 0 1080 810" preserveAspectRatio="xMidYMid slice">
  <defs>
    <linearGradient id="ne-bg" x1="0" y1="0" x2="1" y2="1">
      <stop offset="0%" stop-color="#1b1d22"/>
      <stop offset="100%" stop-color="#3a2a35"/>
    </linearGradient>
    <linearGradient id="ne-accent" x1="0" y1="0" x2="1" y2="0">
      <stop offset="0%" stop-color="#e8547a"/>
      <stop offset="100%" stop-color="#ffb19a"/>
    </linearGradient>
  </defs>
  <rect width="1080" height="810" fill="url(#ne-bg)"/>
  <g fill="none" stroke="#ffffff" stroke-opacity="0.06">
    <path d="M0 200 L1080 100"/>
    <path d="M0 400 L1080 320"/>
    <path d="M0 600 L1080 540"/>
  </g>
  <g transform="translate(80,120)">
    <text x="0" y="0" fill="#e8547a" font-family="monospace" font-size="14" letter-spacing="2">NUVEM ENVIO · 2021</text>
    <text x="0" y="80" fill="#ffffff" font-family="Georgia, serif" font-size="84" font-weight="400">Shipping,</text>
    <text x="0" y="170" fill="#ffffff" font-family="Georgia, serif" font-size="84" font-weight="400">simplified.</text>
  </g>
  <g transform="translate(80,520)" fill="#ffffff" font-family="monospace" font-size="13" letter-spacing="2">
    <text x="0" y="0" opacity="0.7">CARRIERS · 6</text>
    <text x="240" y="0" opacity="0.7">MERCHANTS · 12K</text>
    <text x="520" y="0" opacity="0.7">SUPPORT · -32%</text>
  </g>
  <g transform="translate(720,560)" stroke="url(#ne-accent)" stroke-width="3" fill="none">
    <rect x="0" y="0" width="240" height="140" rx="6"/>
    <line x1="20" y1="40" x2="220" y2="40" stroke-opacity="0.4"/>
    <line x1="20" y1="80" x2="220" y2="80" stroke-opacity="0.4"/>
    <line x1="20" y1="120" x2="220" y2="120" stroke-opacity="0.4"/>
  </g>
  <circle cx="940" cy="180" r="90" fill="url(#ne-accent)" opacity="0.18"/>
  <circle cx="940" cy="180" r="50" fill="url(#ne-accent)" opacity="0.35"/>
</svg>
