<svg xmlns="http://www.w3.org/2000/svg" viewBox="0 0 520 294" preserveAspectRatio="xMidYMid slice">
  <defs>
    <linearGradient id="abt-bg" x1="0" y1="0" x2="1" y2="1">
      <stop offset="0%" stop-color="#efe9df"/>
      <stop offset="100%" stop-color="#d9d3c8"/>
    </linearGradient>
    <radialGradient id="halo" cx="0.5" cy="0.45" r="0.55">
      <stop offset="0%" stop-color="#e8547a" stop-opacity="0.5"/>
      <stop offset="100%" stop-color="#e8547a" stop-opacity="0"/>
    </radialGradient>
  </defs>
  <rect width="520" height="294" fill="url(#abt-bg)"/>
  <ellipse cx="260" cy="170" rx="220" ry="120" fill="url(#halo)"/>
  <g transform="translate(180,40)">
    <ellipse cx="80" cy="80" rx="62" ry="68" fill="#3a2a35"/>
    <circle cx="80" cy="56" r="36" fill="#f4d6c1"/>
    <path d="M44 80 Q44 30 80 30 Q116 30 116 80 Q116 60 80 60 Q44 60 44 80 Z" fill="#1f1418"/>
    <rect x="36" y="120" width="88" height="84" rx="44" fill="#111111"/>
    <path d="M52 142 L108 142 L108 200 L52 200 Z" fill="#f8f7f4"/>
    <circle cx="80" cy="172" r="6" fill="#e8547a"/>
  </g>
  <g transform="translate(40,250)" fill="#6b6b66" font-family="monospace" font-size="12" letter-spacing="2">
    <text x="0" y="0">— SÃO PAULO · AUSTIN —</text>
  </g>
  <g transform="translate(420,40)" fill="#111111" font-family="Georgia, serif" font-size="18" opacity="0.6">
    <text x="0" y="0">D.S</text>
  </g>
</svg>
